<svg width="161" height="156" viewBox="0 0 161 156" fill="none" xmlns="http://www.w3.org/2000/svg">
<path d="M63.2938 88.1855H52.6704C37.6725 88.1855 25.5146 100.343 25.5146 115.341V135.041C25.5146 142.767 31.7798 149.028 39.5018 149.028H96.1582C103.884 149.028 110.145 142.763 110.145 135.041C110.149 109.162 89.1728 88.1855 63.2938 88.1855Z" fill="#959595"/>
<path d="M88.3633 98.6328C93.2066 98.6328 97.1329 97.288 97.1329 95.6292C97.1329 93.9703 93.2066 92.6255 88.3633 92.6255C83.52 92.6255 79.5938 93.9703 79.5938 95.6292C79.5938 97.288 83.52 98.6328 88.3633 98.6328Z" fill="#959595"/>
<path d="M137.316 127.838C137.983 123.041 135.983 118.798 132.849 118.362C129.715 117.926 126.634 121.462 125.966 126.259C125.299 131.056 127.298 135.299 130.432 135.735C133.566 136.171 136.648 132.635 137.316 127.838Z" fill="#959595"/>
<path d="M77.8911 155.199H37.4971C23.0394 155.199 11.3193 143.479 11.3193 129.021C11.3193 114.564 23.0394 102.844 37.4971 102.844H77.8911C87.295 102.844 94.9228 110.467 94.9228 119.875V138.172C94.9228 147.575 87.295 155.199 77.8911 155.199Z" fill="#959595"/>
<path d="M141.291 127.049H84.4668V146.254H147.421C150.801 146.254 153.539 143.516 153.539 140.136V139.301C153.539 132.533 148.055 127.049 141.291 127.049Z" fill="#959595"/>
<path d="M118.191 135.999H59.124V155.203H120.409C124.71 155.203 128.196 151.717 128.196 147.416V146.004C128.196 140.475 123.715 135.999 118.191 135.999Z" fill="#959595"/>
<path d="M116.91 98.42L100.091 74.98C99.2643 73.4126 96.989 73.5149 96.3056 75.1518L90.7811 99.5986C90.1878 101.019 91.2722 102.57 92.8068 102.5L104.461 101.976L97.9998 100.482C96.899 100.229 96.2115 99.128 96.4652 98.0272C96.7189 96.9264 97.8197 96.243 98.9205 96.4926L112.785 99.6927C113.677 99.8973 114.287 100.658 114.356 101.526L115.15 101.489C116.685 101.424 117.626 99.7827 116.91 98.42Z" fill="#959595"/>
<path d="M143.489 83.8314L121.162 97.532C119.853 98.3341 119.824 100.229 121.113 101.072L123.032 102.328C123.352 102.238 123.691 102.218 124.035 102.295L137.899 105.495C139 105.749 139.688 106.85 139.434 107.951C139.217 108.896 138.374 109.539 137.441 109.539C137.29 109.539 137.134 109.522 136.979 109.485L132.33 108.413L139.831 113.32C141.116 114.163 142.843 113.377 143.051 111.855L146.661 85.9102C146.906 84.1505 144.999 82.9024 143.489 83.8314Z" fill="#959595"/>
<path d="M21.9833 146.634C19.3029 146.634 16.6798 145.321 15.1166 142.906C14.2368 141.552 -6.28554 109.416 2.87279 81.3842C7.38238 67.5772 17.9771 57.4122 34.3704 51.1675C38.5935 49.5593 43.3241 51.679 44.9323 55.9022C46.5406 60.1253 44.4249 64.8559 40.1977 66.4641C28.5104 70.9205 21.394 77.4476 18.4477 86.4258C11.6915 106.993 28.6863 133.748 28.8582 134.014C31.3012 137.811 30.2127 142.874 26.4233 145.325C25.0443 146.209 23.5056 146.634 21.9833 146.634Z" fill="#959595"/>
<path d="M120.728 88.607C106.033 85.2145 92.0088 91.6065 89.4021 102.889C86.7995 114.171 96.6003 126.063 111.295 129.459C125.99 132.852 140.014 126.46 142.621 115.178C145.228 103.895 135.423 91.9994 120.728 88.607ZM96.4693 98.0313C96.723 96.9305 97.8238 96.2471 98.9246 96.4967L112.789 99.6968C113.89 99.9505 114.577 101.051 114.324 102.152C114.107 103.097 113.264 103.74 112.331 103.74C112.179 103.74 112.024 103.724 111.868 103.687L98.0039 100.487C96.899 100.229 96.2156 99.1321 96.4693 98.0313ZM121.636 116.54C121.284 116.778 120.887 116.892 120.495 116.892C119.836 116.892 119.193 116.577 118.796 115.992L116.333 112.338L112.683 114.801C111.745 115.435 110.473 115.186 109.843 114.249C109.212 113.312 109.458 112.039 110.395 111.409L117.438 106.654L122.189 113.696C122.819 114.633 122.573 115.906 121.636 116.54ZM121.579 103.826C121.833 102.725 122.934 102.042 124.034 102.291L137.899 105.491C138.999 105.745 139.687 106.846 139.433 107.947C139.216 108.892 138.373 109.534 137.44 109.534C137.289 109.534 137.133 109.518 136.978 109.481L123.114 106.281C122.013 106.027 121.325 104.927 121.579 103.826Z" fill="#959595"/>
<path d="M132.853 79.2768L147.049 62.3351C148.952 60.0639 147.683 56.5815 144.766 56.07L122.995 52.2478C120.077 51.7363 117.696 54.5763 118.711 57.359L126.285 78.1228C127.3 80.9055 130.95 81.5479 132.853 79.2768Z" fill="#959595"/>
<path d="M76.3157 36.2105V23.9667L69.2485 36.2105H76.3157ZM131.458 36.2105V23.9667L124.391 36.2105H131.458ZM101.794 24.1467C100.893 24.1467 99.9931 24.5519 99.4079 25.092C97.7874 26.4875 96.7971 30.1336 96.7971 32.9245C96.7971 35.3102 97.6524 39.2265 99.4079 40.757C99.9931 41.2971 100.893 41.7023 101.794 41.7023C102.694 41.7023 103.594 41.2971 104.179 40.757C105.845 39.3165 106.79 35.5353 106.79 32.9695C106.79 30.3137 105.755 26.4875 104.179 25.092C103.594 24.5519 102.694 24.1467 101.794 24.1467ZM126.126 0.559357H78.5827C59.5827 0.559357 44.1797 15.9624 44.1797 34.9624C44.1797 53.9625 59.5827 69.3655 78.5827 69.3655H126.126C145.126 69.3655 160.529 53.9625 160.529 34.9624C160.529 15.9624 145.126 0.559357 126.126 0.559357ZM87.1641 42.1974H83.5179V47.8692H76.3157V42.1974H61.7761V37.2008L73.3447 17.8448H83.5179V36.2105H87.1641V42.1974ZM110.076 45.1233C107.736 47.419 104.72 48.5444 101.794 48.5444C98.8677 48.5444 95.8518 47.419 93.5111 45.1233C90.8102 42.4675 89.0547 38.1461 89.0547 32.8795C89.0547 27.5678 90.8102 23.2465 93.5111 20.5906C95.8518 18.2949 98.8677 17.1696 101.794 17.1696C104.72 17.1696 107.736 18.2949 110.076 20.5906C112.777 23.2465 114.533 27.5678 114.533 32.8795C114.533 38.1461 112.777 42.4675 110.076 45.1233ZM142.306 42.1974H138.66V47.8692H131.458V42.1974H116.918V37.2008L128.487 17.8448H138.66V36.2105H142.306V42.1974Z" fill="#959595"/>
</svg>
