<?xml version="1.0" encoding="utf-8"?>
<!-- Generator: Adobe Illustrator 27.2.0, SVG Export Plug-In . SVG Version: 6.00 Build 0)  -->
<svg version="1.1" id="Layer_1" xmlns="http://www.w3.org/2000/svg" xmlns:xlink="http://www.w3.org/1999/xlink" x="0px" y="0px"
	 viewBox="0 0 425.2 425.2" style="enable-background:new 0 0 425.2 425.2;" xml:space="preserve">
<path d="M174.22,237.49h-25.96c-36.65,0-66.36,29.71-66.36,66.36v48.14c0,18.88,15.31,34.18,34.18,34.18h138.45
	c18.88,0,34.18-15.31,34.18-34.18v0C288.72,288.75,237.46,237.49,174.22,237.49z"/>
<ellipse cx="235.48" cy="255.68" rx="21.43" ry="7.34"/>
<ellipse transform="matrix(0.1378 -0.9905 0.9905 0.1378 -35.0835 624.6238)" cx="341.22" cy="332.46" rx="21.43" ry="14"/>
<path d="M209.89,401.25h-98.71c-35.33,0-63.97-28.64-63.97-63.97v0c0-35.33,28.64-63.97,63.97-63.97h98.71
	c22.98,0,41.62,18.63,41.62,41.62v44.71C251.51,382.62,232.87,401.25,209.89,401.25z"/>
<path d="M364.82,332.46H225.96v46.93H379.8c8.26,0,14.95-6.69,14.95-14.95v-2.04C394.75,345.86,381.35,332.46,364.82,332.46z"/>
<path d="M308.37,354.33H164.03v46.93h149.76c10.51,0,19.03-8.52,19.03-19.03v-3.45C332.82,365.27,321.87,354.33,308.37,354.33z"/>
<g>
	<path d="M305.24,262.5l-41.1-57.28c-2.02-3.83-7.58-3.58-9.25,0.42l-13.5,59.74c-1.45,3.47,1.2,7.26,4.95,7.09l28.48-1.28
		l-15.79-3.65c-2.69-0.62-4.37-3.31-3.75-6c0.62-2.69,3.31-4.36,6-3.75l33.88,7.82c2.18,0.5,3.67,2.36,3.84,4.48l1.94-0.09
		C304.69,269.84,306.99,265.83,305.24,262.5z"/>
</g>
<g>
	<path d="M370.19,226.85l-54.56,33.48c-3.2,1.96-3.27,6.59-0.12,8.65l4.69,3.07c0.78-0.22,1.61-0.27,2.45-0.08l33.88,7.82
		c2.69,0.62,4.37,3.31,3.75,6c-0.53,2.31-2.59,3.88-4.87,3.88c-0.37,0-0.75-0.04-1.13-0.13l-11.36-2.62l18.33,11.99
		c3.14,2.06,7.36,0.14,7.87-3.58l8.82-63.4C378.54,227.63,373.88,224.58,370.19,226.85z"/>
</g>
<path d="M73.27,380.32c-6.55,0-12.96-3.21-16.78-9.11c-2.15-3.31-52.3-81.84-29.92-150.34c11.02-33.74,36.91-58.58,76.97-73.84
	c10.32-3.93,21.88,1.25,25.81,11.57c3.93,10.32-1.24,21.88-11.57,25.81c-28.56,10.89-45.95,26.84-53.15,48.78
	c-16.51,50.26,25.02,115.64,25.44,116.29c5.97,9.28,3.31,21.65-5.95,27.64C80.75,379.28,76.99,380.32,73.27,380.32z"/>
<path d="M314.57,238.52c-35.91-8.29-70.18,7.33-76.55,34.9c-6.36,27.57,17.59,56.63,53.5,64.93c35.91,8.29,70.18-7.33,76.55-34.9
	S350.48,246.81,314.57,238.52z M255.29,261.55c0.62-2.69,3.31-4.36,6-3.75l33.88,7.82c2.69,0.62,4.37,3.31,3.75,6
	c-0.53,2.31-2.59,3.88-4.87,3.88c-0.37,0-0.75-0.04-1.13-0.13l-33.88-7.82C256.34,266.92,254.67,264.24,255.29,261.55z
	 M316.79,306.78c-0.86,0.58-1.83,0.86-2.79,0.86c-1.61,0-3.18-0.77-4.15-2.2l-6.02-8.93l-8.92,6.02c-2.29,1.55-5.4,0.94-6.94-1.35
	c-1.54-2.29-0.94-5.4,1.35-6.94l17.21-11.62l11.61,17.21C319.68,302.12,319.08,305.23,316.79,306.78z M316.65,275.71
	c0.62-2.69,3.31-4.36,6-3.75l33.88,7.82c2.69,0.62,4.37,3.31,3.75,6c-0.53,2.31-2.59,3.88-4.87,3.88c-0.37,0-0.75-0.04-1.13-0.13
	l-33.88-7.82C317.71,281.09,316.03,278.4,316.65,275.71z"/>
<path d="M344.2,215.72l34.69-41.4c4.65-5.55,1.55-14.06-5.58-15.31l-53.2-9.34c-7.13-1.25-12.95,5.69-10.47,12.49l18.51,50.74
	C330.63,219.7,339.55,221.27,344.2,215.72z"/>
<g>
	<g>
		<path d="M206.04,110.48V80.56l-17.27,29.92H206.04z M340.79,110.48V80.56l-17.27,29.92H340.79z M268.3,81
			c-2.2,0-4.4,0.99-5.83,2.31c-3.96,3.41-6.38,12.32-6.38,19.14c0,5.83,2.09,15.4,6.38,19.14c1.43,1.32,3.63,2.31,5.83,2.31
			s4.4-0.99,5.83-2.31c4.07-3.52,6.38-12.76,6.38-19.03c0-6.49-2.53-15.84-6.38-19.25C272.7,81.99,270.5,81,268.3,81z M327.76,23.36
			H211.58c-46.43,0-84.07,37.64-84.07,84.07v0c0,46.43,37.64,84.07,84.07,84.07h116.18c46.43,0,84.07-37.64,84.07-84.07v0
			C411.83,61,374.19,23.36,327.76,23.36z M232.55,125.11h-8.91v13.86h-17.6v-13.86h-35.53V112.9l28.27-47.3h24.86v44.88h8.91V125.11
			z M288.54,132.26c-5.72,5.61-13.09,8.36-20.24,8.36c-7.15,0-14.52-2.75-20.24-8.36c-6.6-6.49-10.89-17.05-10.89-29.92
			c0-12.98,4.29-23.54,10.89-30.03c5.72-5.61,13.09-8.36,20.24-8.36c7.15,0,14.52,2.75,20.24,8.36c6.6,6.49,10.89,17.05,10.89,30.03
			C299.43,115.21,295.14,125.77,288.54,132.26z M367.3,125.11h-8.91v13.86h-17.6v-13.86h-35.53V112.9l28.27-47.3h24.86v44.88h8.91
			V125.11z"/>
	</g>
</g>
</svg>
