<svg width="163" height="163" viewBox="0 0 163 163" fill="none" xmlns="http://www.w3.org/2000/svg">
<path d="M81.1817 157.112C78.2031 157.112 75.6845 154.816 75.4545 151.799C75.213 148.636 77.5744 145.88 80.7332 145.631C80.9325 145.615 100.702 143.833 107.38 129.434C115.154 112.678 111.999 104.823 108.384 99.851C106.517 97.2825 107.085 93.6867 109.653 91.8198C112.221 89.9529 115.817 90.5203 117.684 93.0887C125.589 103.957 125.631 117.428 117.815 134.276C108.273 154.839 82.7075 157.016 81.6264 157.096C81.4769 157.108 81.3274 157.112 81.1817 157.112Z" fill="#959595"/>
<path d="M84.015 157.108H35.9354C27.8467 157.108 21.2876 150.549 21.2876 142.46V140.543C21.2876 124.006 34.6971 110.596 51.2348 110.596H68.7194C85.257 110.596 98.6666 124.006 98.6666 140.543V142.46C98.6628 150.549 92.1037 157.108 84.015 157.108Z" fill="#959595"/>
<path d="M117.929 10.9829C104.792 10.9829 94.1465 21.6323 94.1465 34.7659V51.6524C94.1465 64.7898 104.796 75.4354 117.929 75.4354C131.067 75.4354 141.712 64.7859 141.712 51.6524V34.7697C141.712 21.6323 131.067 10.9829 117.929 10.9829ZM120.138 51.3419C119.559 51.9207 118.842 52.1968 118.121 52.1968C117.515 52.1968 116.768 52.0051 116.105 51.3419C115.744 50.9815 115.25 50.3222 115.25 49.3255C115.25 48.3326 115.748 47.6694 116.105 47.3091C116.768 46.6459 117.485 46.4542 118.09 46.4542C118.807 46.4542 119.555 46.7302 120.161 47.3359C120.628 47.8036 120.962 48.4131 120.962 49.3216C120.969 50.2379 120.636 50.8435 120.138 51.3419ZM123.342 42.176C122.599 43.0041 121.521 43.6672 120.253 43.9433V45.4076H115.752V40.934C116.055 41.0183 116.331 41.072 116.691 41.072C117.546 41.072 118.623 40.8228 119.287 40.1596C119.701 39.7456 119.923 39.1667 119.923 38.6415C119.923 38.2007 119.785 37.6755 119.455 37.3458C119.152 37.0161 118.654 36.8206 118.129 36.8206C117.604 36.8206 117.19 37.0123 116.94 37.2883C116.638 37.5912 116.442 38.1164 116.442 38.6684H111.585C111.669 36.928 112.413 35.5786 113.241 34.7505C114.153 33.8382 115.725 32.9565 118.044 32.9565C120.364 32.9565 121.935 33.8113 122.932 34.7505C123.925 35.6898 124.673 37.043 124.673 38.699C124.665 39.8874 124.224 41.1831 123.342 42.176Z" fill="#959595"/>
<path d="M102.673 82.4889L121.759 74.4654C124.32 73.3882 124.753 69.9457 122.542 68.2667L106.046 55.7503C103.834 54.0713 100.637 55.4168 100.288 58.1731L97.6928 78.7168C97.3478 81.4654 100.116 83.5661 102.673 82.4889Z" fill="#959595"/>
<path d="M93.0041 126.747L85.3716 92.4984C84.5665 88.8834 82.8223 85.6134 80.3957 82.8572C83.6312 79.568 85.5556 75.4739 85.5556 71.0308C85.5556 69.9996 85.4521 68.9876 85.2527 68.0024C85.2527 67.9717 85.2527 67.9372 85.2489 67.9066L83.0753 43.4642C82.9296 41.812 80.9247 41.076 79.744 42.2375L69.1214 52.6914C66.2808 51.8557 63.1987 51.3919 59.9747 51.3919C56.5246 51.3919 53.2354 51.9209 50.2338 52.8678L39.9064 42.7052C38.7257 41.5436 36.7208 42.2797 36.5751 43.9319L34.4015 68.3742C34.3747 68.6694 34.4168 68.9493 34.5088 69.2023C34.436 69.8041 34.3938 70.4098 34.3938 71.027C34.3938 75.4662 36.3144 79.5604 39.5537 82.8533C37.1271 85.6058 35.3829 88.8796 34.5778 92.4946L26.9454 126.743C23.7904 140.896 36.0384 154.072 52.3422 154.072H59.9747H67.6072C83.911 154.076 96.159 140.9 93.0041 126.747ZM49.1604 70.061C46.5498 69.8616 44.7443 66.7297 45.1238 63.0687C45.2196 62.1295 45.4573 61.2439 45.7908 60.4542L53.5881 58.8519C54.3778 60.1322 54.7727 61.8841 54.5733 63.7894C54.1938 67.4504 51.771 70.2603 49.1604 70.061ZM65.8668 75.6962L65.6138 75.9492C65.0618 76.5012 64.1647 76.5012 63.6127 75.9492L60.0744 72.4109L56.5399 75.9454C55.9879 76.4974 55.0908 76.4974 54.5388 75.9454L54.2858 75.6924C53.7338 75.1403 53.7338 74.2433 54.2858 73.6913L60.0782 67.8989L61.3318 69.1524C61.3394 69.1601 61.3394 69.1639 61.3471 69.1716L65.8706 73.6951C66.4226 74.2471 66.4226 75.1442 65.8668 75.6962ZM70.4056 70.061C67.795 70.2603 65.3723 67.4504 64.9889 63.7855C64.7896 61.8841 65.1883 60.1284 65.9741 58.848L73.7714 60.4504C74.1088 61.2439 74.3426 62.1256 74.4385 63.0649C74.8218 66.7335 73.0162 69.8655 70.4056 70.061Z" fill="#959595"/>
</svg>
