<svg width="375" height="426" viewBox="0 0 375 426" fill="none" xmlns="http://www.w3.org/2000/svg">
<path d="M182.41 41.86L136.78 86.76C134.1 89.39 135.08 93.92 138.6 95.22L189.9 114.09C193.43 115.39 197.1 112.57 196.77 108.83L191.1 45.07C190.72 40.75 185.49 38.82 182.41 41.86Z" fill="#FF6565"/>
<path d="M65.29 47.13L65.57 108.37C64.94 112.07 68.37 115.17 71.99 114.16L124.64 99.48C128.26 98.47 129.59 94.04 127.14 91.2L74.21 44.65C71.38 41.37 66.02 42.87 65.29 47.13Z" fill="#FF6565"/>
<path d="M130.84 168.2C167.694 168.2 197.57 145.264 197.57 116.97C197.57 88.6764 167.694 65.74 130.84 65.74C93.9859 65.74 64.1099 88.6764 64.1099 116.97C64.1099 145.264 93.9859 168.2 130.84 168.2Z" fill="#FF6565"/>
<path d="M65.29 47.13L65.57 108.37C64.94 112.07 68.37 115.17 71.99 114.16L124.64 99.48C128.26 98.47 129.59 94.04 127.14 91.2L74.21 44.65C71.38 41.37 66.02 42.87 65.29 47.13Z" fill="#FF6565"/>
<path d="M182.41 41.86L136.78 86.76C134.1 89.39 135.08 93.92 138.6 95.22L189.9 114.09C193.43 115.39 197.1 112.57 196.77 108.83L191.1 45.07C190.72 40.75 185.49 38.82 182.41 41.86Z" fill="#FF6565"/>
<path d="M160.72 350.19H25.9799C12.9599 350.19 -3.12012 339.06 -3.12012 325.34V281.18C-3.12012 182.65 59.9099 143.37 130.83 143.37H170.07C177.35 143.37 183.26 149.59 183.26 157.27V326.45C183.25 339.56 173.16 350.19 160.72 350.19Z" fill="#FF6565"/>
<path d="M157.48 350.19H146.98V219.4L181.32 150.47C205.42 184.22 219.53 248.68 219.53 284.8C219.52 320.92 191.74 350.19 157.48 350.19Z" fill="#FF6565"/>
<path d="M83.9403 175.23C98.178 165.544 105.368 151.295 100 143.405C94.6317 135.514 78.738 136.97 64.5003 146.656C50.2626 156.343 43.0725 170.592 48.4407 178.482C53.8089 186.373 69.7026 184.917 83.9403 175.23Z" fill="#FF6565"/>
<path d="M290.31 217.82C298.776 217.82 305.64 210.46 305.64 201.38C305.64 192.3 298.776 184.94 290.31 184.94C281.843 184.94 274.98 192.3 274.98 201.38C274.98 210.46 281.843 217.82 290.31 217.82Z" fill="#FF6565"/>
<path d="M274.04 189.52C274.04 194.31 270.42 198.19 265.95 198.19C261.48 198.19 257.86 194.31 257.86 189.52C257.86 184.73 262.7 174.95 267.16 174.95C271.64 174.95 274.04 184.73 274.04 189.52Z" fill="#FF6565"/>
<path d="M288.93 172.75C288.93 177.7 285.19 181.71 280.57 181.71C275.95 181.71 272.21 177.7 272.21 172.75C272.21 167.8 277.21 157.69 281.83 157.69C286.45 157.69 288.93 167.8 288.93 172.75Z" fill="#FF6565"/>
<path d="M308.38 172.75C308.38 177.7 304.64 181.71 300.02 181.71C295.4 181.71 291.66 177.7 291.66 172.75C291.66 167.8 296.66 157.69 301.28 157.69C305.9 157.69 308.38 167.8 308.38 172.75Z" fill="#FF6565"/>
<path d="M323.5 189.58C323.5 194.53 319.76 198.54 315.14 198.54C310.52 198.54 306.78 194.53 306.78 189.58C306.78 184.63 311.78 174.52 316.4 174.52C321.02 174.52 323.5 184.63 323.5 189.58Z" fill="#FF6565"/>
<path d="M392.34 129.63C390.63 127.5 388.05 126.26 385.32 126.26H222.52C218.3 126.26 214.64 129.19 213.73 133.32L206.79 164.7C211.54 174.66 215.44 184.99 218.59 194.67L229.74 144.27H374.11L353.53 237.26H229.43C230.58 243.36 231.55 249.4 232.33 255.26H360.75C364.97 255.26 368.63 252.33 369.54 248.2L394.1 137.21C394.7 134.55 394.05 131.76 392.34 129.63Z" fill="#FF6565"/>
<path d="M357.36 246.26H231.02C233.28 260.28 234.53 273.64 234.53 284.8C234.53 294.99 232.68 304.73 229.36 313.71H286.97C290.17 313.71 293.09 312.46 294.51 310.49L364.9 254.62C367.67 250.77 363.6 246.26 357.36 246.26Z" fill="#FF6565"/>
<path d="M39.6401 307.74C38.8001 313.76 36.7501 320.08 35.1301 326.09C33.4501 332.07 31.2401 338.47 31.6801 344.63C33.7701 363.1 49.7401 368.97 66.5601 368.86C76.0501 368.9 85.7101 367.25 94.9401 365.05C107.41 361.92 119.68 357.55 131.45 352.26C156.16 342.33 171.8 377.06 147.87 388.94C146.66 389.48 145.44 389.9 144.19 390.18C127.89 394 111.72 397.64 94.9301 399.56C67.4501 402.74 34.0901 401.53 14.7801 378.44C7.8401 370.42 4.0901 360.32 1.5701 350.42C-3.4599 332.54 -5.8299 313.97 1.0601 296.52C1.3201 295.75 1.6301 295.23 1.9001 294.51C5.5501 284.09 16.9701 278.6 27.3901 282.25C37.8101 285.9 43.3001 297.32 39.6401 307.74Z" fill="#FF6565"/>
</svg>
