<svg width="259" height="281" viewBox="0 0 259 281" fill="none" xmlns="http://www.w3.org/2000/svg">
<path d="M131.651 254.857C192.831 254.857 242.427 234.97 242.427 210.439C242.427 185.907 192.831 166.02 131.651 166.02C70.4718 166.02 20.876 185.907 20.876 210.439C20.876 234.97 70.4718 254.857 131.651 254.857Z" fill="#F3F3F3"/>
<path d="M105.933 86.5848H54.0588C31.1808 86.5848 12.6328 68.0712 12.6328 45.2354C12.6328 22.3996 31.1808 3.88599 54.0588 3.88599H105.933C128.811 3.88599 147.359 22.3996 147.359 45.2354C147.363 68.0712 128.815 86.5848 105.933 86.5848Z" fill="#FF6565"/>
<path d="M60.5138 94.0276L63.2032 72.7779C63.5647 69.9309 60.7005 67.758 58.0468 68.8722L38.2674 77.1714C35.6137 78.2856 35.1648 81.8464 37.457 83.5832L54.551 96.5297C56.8392 98.2704 60.1523 96.8786 60.5138 94.0276Z" fill="#FF6565"/>
<path d="M205.001 74.0149L202.311 52.7652C201.95 49.9182 204.814 47.7453 207.468 48.8595L227.247 57.1587C229.901 58.2729 230.35 61.8337 228.058 63.5705L210.964 76.517C208.675 78.2577 205.362 76.8659 205.001 74.0149Z" fill="#6F7DFF"/>
<path d="M214.038 1.38794C200.424 1.38794 189.393 12.4034 189.393 25.9882V43.4551C189.393 57.0439 200.428 68.0554 214.038 68.0554C227.652 68.0554 238.684 57.0399 238.684 43.4551V25.9882C238.684 12.4034 227.648 1.38794 214.038 1.38794ZM212.553 23.8629H217.3V36.4247H212.553V23.8629ZM217.042 42.5669C216.442 43.1656 215.699 43.4511 214.952 43.4511C214.324 43.4511 213.55 43.2528 212.863 42.5669C212.489 42.1941 211.977 41.5121 211.977 40.4811C211.977 39.4502 212.493 38.7682 212.863 38.3954C213.55 37.7094 214.321 37.5112 214.952 37.5112C215.667 37.5112 216.438 37.7967 217.07 38.4232C217.554 38.9069 217.9 39.5374 217.9 40.4772C217.9 41.4249 217.558 42.0514 217.042 42.5669Z" fill="#6F7DFF"/>
<path d="M128.747 195.819C128.747 181.655 123.265 156.508 113.881 143.01C113.806 142.832 113.723 142.661 113.627 142.491C117.612 138.938 120.023 134.318 120.023 129.267C120.023 128.2 119.916 127.153 119.709 126.134C119.709 126.102 119.709 126.067 119.705 126.035L117.453 100.753C117.302 99.0436 115.224 98.2823 114.001 99.4837L102.993 110.297C100.049 109.433 96.855 108.953 93.5141 108.953C89.6209 108.953 85.9264 109.603 82.5974 110.757L71.0174 100.59C69.8931 99.2934 67.7638 99.8842 67.4738 101.577L67.5811 125.04C67.2037 126.404 67.0011 127.819 67.0011 129.267C67.0011 132.883 68.2405 136.277 70.4016 139.219C69.3171 139.711 68.2247 140.318 67.156 141.043C63.68 143.407 61.2607 146.448 60.4106 149.172C48.7948 157.336 40.9291 171.131 40.3332 191.838L40.214 191.798C39.9439 192.647 37.616 200.379 38.9825 209.896C40.3133 219.154 45.4221 231.7 62.1903 238.873C70.8545 242.581 79.4472 243.901 87.297 243.897C106.123 243.897 120.651 236.3 121.501 235.844C124.886 234.036 126.169 229.825 124.357 226.446C122.546 223.068 118.339 221.791 114.954 223.599C114.716 223.726 90.8683 236.038 67.6685 226.113C64.8082 224.892 62.3731 223.433 60.3351 221.744H99.9258H104.097H104.125H105.384H121.406C124.405 221.744 126.84 219.317 126.84 216.319V214.88C126.84 212.758 126.272 210.776 125.283 209.059C127.484 205.189 128.747 200.661 128.747 195.819Z" fill="#FF6565"/>
<path d="M243.475 117.7C240.686 115.067 236.285 115.186 233.647 117.97C232.968 118.687 216.911 135.924 212.962 166.595C212.843 167.519 212.688 168.399 212.509 169.248C213.228 152.459 209.601 139.838 203.225 130.821C202.74 127.764 201.799 124.389 200.385 120.951C198.633 116.689 196.436 112.993 194.152 110.218C197.747 106.752 199.9 102.366 199.9 97.5923C199.9 96.141 199.697 94.7294 199.32 93.3653L199.427 69.9031C199.137 68.2139 197.008 67.6191 195.884 68.9157L184.304 79.0826C180.975 77.9287 177.28 77.2784 173.387 77.2784C170.046 77.2784 166.852 77.7582 163.908 78.6226L152.9 67.8094C151.677 66.608 149.599 67.3693 149.448 69.0783L147.196 94.3606C147.192 94.3923 147.196 94.428 147.192 94.4597C146.985 95.4828 146.878 96.5256 146.878 97.5923C146.878 102.267 148.944 106.57 152.408 110.003C151.856 110.674 151.323 111.399 150.831 112.176C150.644 112.47 150.469 112.763 150.298 113.057C149.615 113.616 149.063 114.377 148.705 115.273C138.81 128.39 132.291 153.149 131.683 167.246C131.302 176.104 135.191 184.102 141.436 189.05C140.717 190.565 140.311 192.262 140.311 194.05V195.49C140.311 198.484 142.743 200.914 145.746 200.914H163.027C164.294 200.914 165.323 199.887 165.323 198.622V194.649L171.341 194.907V198.618C171.341 199.883 172.37 200.91 173.637 200.91H190.918C193.449 200.91 195.566 199.181 196.174 196.846C201.461 196.719 208.04 195.565 213.86 191.604C221.058 186.703 225.396 178.883 226.751 168.356C230.092 142.395 243.626 127.625 243.745 127.498C246.383 124.726 246.264 120.337 243.475 117.7ZM166.88 93.4248C166.375 97.4733 163.865 100.491 161.267 100.17C158.673 99.8485 156.976 96.3075 157.477 92.259C157.981 88.2105 160.492 85.193 163.09 85.5142C165.688 85.8354 167.384 89.3763 166.88 93.4248ZM177.07 107.735H168.628C167.559 107.735 166.947 106.514 167.591 105.662L171.81 100.071C172.33 99.3846 173.363 99.3846 173.884 100.071L178.102 105.662C178.75 106.514 178.138 107.735 177.07 107.735ZM184.431 100.17C181.837 100.491 179.322 97.4733 178.818 93.4248C178.313 89.3763 180.009 85.8354 182.607 85.5142C185.201 85.193 187.716 88.2105 188.221 92.259C188.725 96.3036 187.029 99.8445 184.431 100.17Z" fill="#6F7DFF"/>
<path d="M180.476 265.872C192.336 265.872 201.951 256.275 201.951 244.436C201.951 232.597 192.336 223 180.476 223C168.615 223 159 232.597 159 244.436C159 256.275 168.615 265.872 180.476 265.872Z" fill="#F69B9D"/>
<path d="M177.352 238.232C179.416 235.255 179.03 231.42 176.49 229.665C173.949 227.91 170.217 228.901 168.153 231.877C166.089 234.854 166.475 238.69 169.015 240.444C171.556 242.199 175.288 241.209 177.352 238.232Z" fill="#FBD6E6"/>
<path d="M78.75 18.6084C79.5235 18.1619 80.4765 18.1619 81.25 18.6084L103.097 31.2217C103.87 31.6683 104.347 32.4936 104.347 33.3868V58.6133C104.347 59.5064 103.87 60.3317 103.097 60.7783L81.25 73.3916C80.4765 73.8381 79.5235 73.8381 78.75 73.3916L56.9032 60.7783L55.6532 62.9434L56.9032 60.7783C56.1297 60.3317 55.6532 59.5064 55.6532 58.6132V33.3868C55.6532 32.4936 56.1297 31.6683 56.9032 31.2217L78.75 18.6084Z" stroke="white" stroke-width="5"/>
<path d="M80 27L96.4545 36.5V55.5L80 65L63.5455 55.5V36.5L80 27Z" fill="#FFAAAA"/>
</svg>
