<svg width="312" height="351" viewBox="0 0 312 351" fill="none" xmlns="http://www.w3.org/2000/svg">
<path fill-rule="evenodd" clip-rule="evenodd" d="M205.033 291.75L217.91 349.531C217.996 349.919 218.076 350.307 218.149 350.694H106.221C106.294 350.305 106.374 349.915 106.461 349.524L119.338 291.743C120.696 285.644 123.639 280.121 127.733 275.478C122.268 269.922 119.028 263.015 119.028 255.525C119.028 254.484 119.099 253.462 119.222 252.447C119.066 252.02 118.995 251.548 119.04 251.05L122.708 209.813C122.953 207.025 126.336 205.783 128.328 207.743L145.751 224.888C150.815 223.291 156.365 222.398 162.185 222.398C167.625 222.398 172.825 223.181 177.617 224.591L195.539 206.954C197.531 204.994 200.913 206.236 201.159 209.023L204.826 250.261C204.832 250.312 204.832 250.37 204.832 250.422V250.422C205.169 252.084 205.343 253.792 205.343 255.532C205.343 263.027 202.097 269.935 196.638 275.484C200.732 280.134 203.675 285.651 205.033 291.75ZM137.13 242.099C136.49 248.275 139.536 253.559 143.94 253.895C148.345 254.232 152.432 249.491 153.073 243.314C153.409 240.1 152.743 237.144 151.41 234.984L138.256 237.688C137.693 239.02 137.292 240.514 137.13 242.099ZM171.699 263.829L172.126 263.403C173.064 262.471 173.064 260.958 172.133 260.027L164.501 252.395C164.494 252.388 164.491 252.383 164.487 252.378C164.484 252.373 164.481 252.369 164.475 252.362L162.36 250.248L152.588 260.02C151.656 260.951 151.656 262.465 152.588 263.396L153.014 263.823C153.946 264.754 155.459 264.754 156.391 263.823L162.354 257.86L168.323 263.829C169.254 264.761 170.768 264.761 171.699 263.829ZM170.645 243.308C171.292 249.491 175.379 254.232 179.784 253.895C184.188 253.565 187.234 248.281 186.587 242.092C186.426 240.507 186.031 239.02 185.462 237.681L172.307 234.978C170.981 237.138 170.309 240.1 170.645 243.308Z" fill="#FF6565"/>
<rect x="166" y="233.694" width="30" height="21" rx="4" fill="#FFAAAA"/>
<rect x="169" y="236.558" width="24" height="15.2727" rx="2" fill="#F3F3F3"/>
<rect x="128" y="233.694" width="30" height="21" rx="4" fill="#FFAAAA"/>
<rect x="131" y="236.558" width="24" height="15.2727" rx="2" fill="#F3F3F3"/>
<rect x="157" y="242.285" width="10" height="3.81818" fill="#FFAAAA"/>
<rect x="116" y="242.285" width="13" height="3.81818" rx="1" fill="#FFAAAA"/>
<rect x="195" y="242.285" width="13" height="3.81818" rx="1" fill="#FFAAAA"/>
<path d="M109.418 146H48.5824C21.7521 146 0 124.285 0 97.5C0 70.7152 21.7521 49 48.5824 49H109.418C136.248 49 158 70.7152 158 97.5C158.005 124.285 136.253 146 109.418 146Z" fill="#FFAAAA"/>
<path d="M252.656 118H178.344C145.571 118 119 91.5835 119 59C119 26.4165 145.571 0 178.344 0H252.656C285.429 0 312 26.4165 312 59C312.006 91.5835 285.435 118 252.656 118Z" fill="#FFAAAA"/>
<circle cx="71" cy="168" r="16" fill="#FFAAAA"/>
<circle cx="88" cy="193" r="9" fill="#FFAAAA"/>
<circle cx="103.5" cy="208.5" r="6.5" fill="#FFAAAA"/>
<path d="M217.5 228L219.144 233.856L225 235.5L219.144 237.144L217.5 243L215.856 237.144L210 235.5L215.856 233.856L217.5 228Z" fill="#FF6565"/>
<path d="M54.5 62L56.144 67.856L62 69.5L56.144 71.144L54.5 77L52.856 71.144L47 69.5L52.856 67.856L54.5 62Z" fill="white"/>
<path d="M99.5 94L100.706 98.2944L105 99.5L100.706 100.706L99.5 105L98.2944 100.706L94 99.5L98.2944 98.2944L99.5 94Z" fill="white"/>
<path d="M109.5 65L111.582 72.4176L119 74.5L111.582 76.5824L109.5 84L107.418 76.5824L100 74.5L107.418 72.4176L109.5 65Z" fill="white"/>
<path d="M90.3876 92.4399C89.7365 91.6967 88.9055 91.0119 87.9389 90.4346C86.9684 89.8562 85.863 89.3833 84.654 89.0594L78.2793 87.3513C78.0245 87.283 77.7703 87.258 77.5291 87.2694C77.2912 87.2837 77.0647 87.3318 76.8655 87.4161C76.6645 87.4998 76.4878 87.6146 76.3511 87.7568C76.212 87.9002 76.111 88.0703 76.0591 88.2638L72.1575 102.694C72.1032 102.889 72.1046 103.091 72.1528 103.287C72.1991 103.482 72.2922 103.671 72.4239 103.846C72.5562 104.019 72.7277 104.176 72.9286 104.308C73.1314 104.44 73.3639 104.546 73.6207 104.614L74.5481 104.863C74.8049 104.932 75.059 104.957 75.3008 104.943C75.5427 104.93 75.7715 104.881 75.9727 104.797C76.1762 104.712 76.3533 104.595 76.4929 104.45C76.6343 104.305 76.7364 104.131 76.7888 103.935L77.8841 99.8628L81.4996 100.832C82.7106 101.156 83.9101 101.301 85.0401 101.283C86.1721 101.266 87.2328 101.086 88.1731 100.765C89.1091 100.445 89.919 99.9825 90.5525 99.3965C91.1859 98.8105 91.6367 98.1016 91.852 97.2906C92.0677 96.4777 92.0261 95.6368 91.768 94.814C91.5143 93.9905 91.0381 93.1852 90.3876 92.4399ZM86.6243 97.0503C86.3223 97.3267 85.937 97.5459 85.4923 97.6958C85.0489 97.8481 84.5438 97.9324 84.0081 97.9388C83.4719 97.9471 82.9047 97.8793 82.3318 97.7258L78.7201 96.7581L80.2218 91.1844L83.826 92.1501C84.3989 92.3036 84.9219 92.528 85.3822 92.8033C85.8429 93.0767 86.2368 93.3999 86.5445 93.7534C86.8542 94.1075 87.0802 94.4904 87.2036 94.8808C87.3246 95.2725 87.3414 95.6693 87.2382 96.0544C87.1388 96.4406 86.9225 96.7728 86.6243 97.0503Z" fill="white"/>
<path d="M86.5938 77.4116C69.2573 72.7663 52.8267 77.8618 49.8972 88.7947L47.3035 98.4747C44.3734 109.41 56.0556 122.036 73.3921 126.681C90.7285 131.326 107.159 126.233 110.089 115.298L112.682 105.618C115.612 94.685 103.93 82.0569 86.5938 77.4116ZM77.1235 112.755C62.4082 108.812 51.8852 98.3593 54.1432 89.9324C56.4016 81.5038 70.7408 77.7146 85.4561 81.6576C100.171 85.6005 110.695 96.0516 108.436 104.48C106.178 112.907 91.8388 116.698 77.1235 112.755Z" fill="white"/>
<path d="M124.826 88.6488C124.567 88.7451 124.435 89.033 124.531 89.2918C124.628 89.5506 124.916 89.6823 125.174 89.586L124.826 88.6488ZM171.455 72.2081C171.57 71.957 171.459 71.6603 171.208 71.5454L167.116 69.673C166.865 69.5581 166.568 69.6685 166.453 69.9196C166.339 70.1707 166.449 70.4674 166.7 70.5823L170.337 72.2467L168.673 75.884C168.558 76.1351 168.668 76.4318 168.919 76.5467C169.171 76.6616 169.467 76.5512 169.582 76.3001L171.455 72.2081ZM128.833 88.2244C129.092 88.1281 129.224 87.8403 129.128 87.5814C129.031 87.3226 128.744 87.1909 128.485 87.2872L128.833 88.2244ZM132.667 85.7311C132.408 85.8274 132.276 86.1153 132.372 86.3741C132.469 86.6329 132.756 86.7646 133.015 86.6683L132.667 85.7311ZM140.333 83.9451C140.592 83.8488 140.724 83.5609 140.628 83.3021C140.531 83.0433 140.244 82.9116 139.985 83.0079L140.333 83.9451ZM144.167 81.4518C143.908 81.5481 143.776 81.8359 143.872 82.0947C143.969 82.3535 144.256 82.4853 144.515 82.389L144.167 81.4518ZM151.833 79.6658C152.092 79.5695 152.224 79.2816 152.128 79.0228C152.031 78.764 151.744 78.6322 151.485 78.7285L151.833 79.6658ZM155.667 77.1724C155.408 77.2687 155.276 77.5566 155.372 77.8154C155.469 78.0742 155.756 78.2059 156.015 78.1096L155.667 77.1724ZM163.333 75.3864C163.592 75.2901 163.724 75.0022 163.628 74.7434C163.531 74.4846 163.244 74.3529 162.985 74.4492L163.333 75.3864ZM167.167 72.8931C166.908 72.9894 166.776 73.2773 166.872 73.5361C166.969 73.7949 167.256 73.9266 167.515 73.8303L167.167 72.8931ZM125.174 89.586L128.833 88.2244L128.485 87.2872L124.826 88.6488L125.174 89.586ZM133.015 86.6683L140.333 83.9451L139.985 83.0079L132.667 85.7311L133.015 86.6683ZM144.515 82.389L151.833 79.6658L151.485 78.7285L144.167 81.4518L144.515 82.389ZM156.015 78.1096L163.333 75.3864L162.985 74.4492L155.667 77.1724L156.015 78.1096ZM167.515 73.8303L171.174 72.4687L170.826 71.5315L167.167 72.8931L167.515 73.8303ZM124.651 88.1802C124.134 88.3728 123.87 88.9486 124.063 89.4662C124.255 89.9838 124.831 90.2473 125.349 90.0546L124.651 88.1802ZM171.909 72.4162C172.139 71.914 171.918 71.3206 171.416 71.0908L163.232 67.3458C162.73 67.116 162.137 67.3368 161.907 67.839C161.677 68.3412 161.898 68.9347 162.4 69.1645L169.675 72.4933L166.346 79.7678C166.116 80.27 166.337 80.8634 166.839 81.0933C167.341 81.3231 167.935 81.1022 168.164 80.6L171.909 72.4162ZM129.008 88.693C129.525 88.5004 129.789 87.9247 129.596 87.4071C129.404 86.8895 128.828 86.626 128.31 86.8186L129.008 88.693ZM132.492 85.2625C131.975 85.4551 131.711 86.0308 131.904 86.5485C132.096 87.0661 132.672 87.3295 133.19 87.1369L132.492 85.2625ZM140.508 84.4137C141.025 84.2211 141.289 83.6453 141.096 83.1277C140.904 82.6101 140.328 82.3467 139.81 82.5393L140.508 84.4137ZM143.992 80.9832C143.475 81.1758 143.211 81.7515 143.404 82.2691C143.596 82.7867 144.172 83.0502 144.69 82.8576L143.992 80.9832ZM152.008 80.1344C152.525 79.9418 152.789 79.366 152.596 78.8484C152.404 78.3308 151.828 78.0673 151.31 78.2599L152.008 80.1344ZM155.492 76.7038C154.975 76.8964 154.711 77.4722 154.904 77.9898C155.096 78.5074 155.672 78.7709 156.19 78.5782L155.492 76.7038ZM163.508 75.855C164.025 75.6624 164.289 75.0867 164.096 74.5691C163.904 74.0515 163.328 73.788 162.81 73.9806L163.508 75.855ZM166.992 72.4245C166.475 72.6171 166.211 73.1928 166.404 73.7105C166.596 74.2281 167.172 74.4915 167.69 74.2989L166.992 72.4245ZM125.349 90.0546L129.008 88.693L128.31 86.8186L124.651 88.1802L125.349 90.0546ZM133.19 87.1369L140.508 84.4137L139.81 82.5393L132.492 85.2625L133.19 87.1369ZM144.69 82.8576L152.008 80.1344L151.31 78.2599L143.992 80.9832L144.69 82.8576ZM156.19 78.5782L163.508 75.855L162.81 73.9806L155.492 76.7038L156.19 78.5782ZM167.69 74.2989L171.349 72.9373L170.651 71.0629L166.992 72.4245L167.69 74.2989Z" fill="white"/>
<path d="M211.343 35.8254L211.103 26.9587L203.305 22.7319L195.746 27.3734L195.985 36.2401L203.784 40.4669L211.343 35.8254Z" fill="white"/>
<path d="M237.877 26.2358L230.077 22.009L222.518 26.6505L222.758 35.5172L230.556 39.744L238.116 35.1025L237.877 26.2358Z" fill="white"/>
<path d="M198.343 50.5058L190.544 46.2804L182.984 50.9205L183.223 59.787L191.023 64.0139L198.582 59.3723L198.343 50.5058Z" fill="white"/>
<path d="M209.756 50.1976L209.996 59.0641L217.795 63.2909L225.355 58.6494L225.115 49.7829L217.316 45.5575L209.756 50.1976Z" fill="white"/>
<path d="M236.53 49.4747L236.769 58.3412L244.568 62.5681L252.128 57.9265L251.889 49.06L244.089 44.8347L236.53 49.4747Z" fill="white"/>
<path d="M239.368 81.4748L239.128 72.6081L231.329 68.3813L223.77 73.0228L224.01 81.8895L231.24 85.8066C229.544 87.8701 224.642 95.1375 224.736 98.6338C224.847 102.731 228.257 105.962 232.354 105.852C236.451 105.741 239.682 102.331 239.572 98.2332C239.477 94.731 234.172 87.7224 232.376 85.7668L239.368 81.4748Z" fill="white"/>
<path d="M196.998 73.7457L197.237 82.6124L205.036 86.8376L212.595 82.1977L212.355 73.331L204.557 69.1042L196.998 73.7457Z" fill="white"/>
<path d="M246.159 36.8652L245.741 21.4064L229.828 12.7844L216.651 20.8737L203.055 13.5073L187.63 22.9753L187.666 24.2937L188.048 38.4342L174.87 46.5236L174.906 47.8421L175.359 64.6165L188.954 71.983L189.371 87.4404L205.284 96.0637L218.462 87.9743L224.133 91.0464C224.507 90.3516 224.935 89.6024 225.429 88.7912C225.805 88.1735 226.148 87.6307 226.475 87.1231L220.638 83.9588L220.291 71.1369L231.222 64.4259L242.5 70.5372L242.846 83.3592L237.206 86.8214C237.562 87.3135 237.936 87.8414 238.349 88.4426C238.882 89.2217 239.349 89.9436 239.758 90.6127L247.482 85.8714L247.064 70.414L260.242 62.3247L259.753 44.2317L246.159 36.8652ZM192.266 25.4889L203.197 18.7767L214.475 24.8893L214.821 37.7115L209.356 41.0661L203.89 44.4209L198.252 41.3659L192.613 38.3112L192.266 25.4889ZM179.852 61.8579L179.506 49.0357L190.437 42.3249L201.715 48.436L202.061 61.2583L196.595 64.6129L191.13 67.9691L179.852 61.8579ZM216.073 84.082L205.142 90.7928L193.865 84.6816L193.518 71.8597L204.449 65.1488L215.727 71.2601L216.073 84.082ZM228.834 60.5354L223.368 63.89L217.903 67.2462L212.264 64.1898L206.625 61.1351L206.279 48.3128L217.21 41.602L228.488 47.7132L228.834 60.5354ZM225.024 40.6429L219.386 37.5881L219.039 24.7658L229.97 18.0536L241.248 24.1662L241.594 36.9885L236.128 40.3431L230.663 43.6978L225.024 40.6429ZM255.607 59.8126L244.675 66.5233L239.037 63.4669L233.398 60.4122L233.052 47.5899L243.983 40.8792L255.261 46.9903L255.607 59.8126Z" fill="white"/>
<path d="M258.508 78.6992H256.498V86H254.071V78.6992H252.096V76.6689H258.508V78.6992ZM262.008 86H259.581V76.6689H262.008V86ZM271.072 79.7451C271.072 80.5882 270.874 81.2855 270.478 81.8369C269.963 82.5524 269.108 82.9102 267.914 82.9102H266.396V86H263.97V76.6689H267.832C268.93 76.6689 269.764 76.9902 270.334 77.6328C270.826 78.1842 271.072 78.8883 271.072 79.7451ZM268.55 79.7725C268.55 79.4261 268.447 79.1504 268.242 78.9453C268.042 78.7357 267.698 78.6309 267.21 78.6309H266.396V80.9482H267.203C267.727 80.9482 268.087 80.8343 268.283 80.6064C268.461 80.4014 268.55 80.1234 268.55 79.7725ZM273.738 84.0518H272.269V79.3623H273.738V84.0518ZM273.861 85.1865C273.861 85.4098 273.779 85.6035 273.615 85.7676C273.456 85.9316 273.26 86.0137 273.027 86.0137C272.799 86.0137 272.604 85.9316 272.439 85.7676C272.28 85.6035 272.2 85.4098 272.2 85.1865C272.2 84.9495 272.28 84.7467 272.439 84.5781C272.599 84.4049 272.795 84.3184 273.027 84.3184C273.26 84.3184 273.456 84.4049 273.615 84.5781C273.779 84.7467 273.861 84.9495 273.861 85.1865Z" fill="white"/>
</svg>
