<svg width="307" height="274" viewBox="0 0 307 274" fill="none" xmlns="http://www.w3.org/2000/svg">
<rect x="57" y="195" width="134" height="47" fill="#FFAAAA"/>
<rect x="197" y="195" width="110" height="47" fill="#FF8C8C"/>
<rect x="90" y="142" width="134" height="47" fill="#FFAAAA"/>
<rect x="230" y="142" width="77" height="53" fill="#FF8C8C"/>
<rect x="262" y="89" width="45" height="53" fill="#FF8C8C"/>
<rect x="123" y="89" width="134" height="47" fill="#FFAAAA"/>
<path d="M90.1912 225.92C90.1912 211.756 84.709 186.609 75.3258 173.111C75.2503 172.933 75.1669 172.762 75.0716 172.592C79.056 169.039 81.4674 164.419 81.4674 159.368C81.4674 158.301 81.3601 157.254 81.1536 156.235C81.1536 156.203 81.1536 156.168 81.1496 156.136L78.8971 130.854C78.7462 129.145 76.6685 128.383 75.445 129.585L64.437 140.398C61.4933 139.534 58.2993 139.054 54.9584 139.054C51.0653 139.054 47.3708 139.704 44.0418 140.858L32.4617 130.691C31.3375 129.394 29.2082 129.985 28.9182 131.678L29.0254 155.141C28.648 156.505 28.4454 157.92 28.4454 159.368C28.4454 162.984 29.6849 166.378 31.846 169.32C30.7614 169.812 29.669 170.419 28.6004 171.144C25.1244 173.508 22.7051 176.549 21.8549 179.273C10.2391 187.438 2.37342 201.233 1.77754 221.939L1.65836 221.899C1.38823 222.748 -0.939707 230.48 0.426859 239.997C1.75767 249.255 6.86641 261.801 23.6346 268.975C32.2988 272.682 40.8915 274.002 48.7413 273.999C67.5674 273.999 82.0951 266.401 82.9452 265.945C86.3298 264.137 87.613 259.926 85.8015 256.548C83.99 253.169 79.783 251.892 76.3984 253.701C76.16 253.827 52.3127 266.139 29.1128 256.214C26.2526 254.993 23.8174 253.534 21.7795 251.845H61.3701H65.5414H65.5692H66.8285H82.8499C85.8492 251.845 88.2843 249.418 88.2843 246.42V244.981C88.2843 242.86 87.7163 240.877 86.7271 239.16C88.9279 235.29 90.1912 230.762 90.1912 225.92Z" fill="#FF6565"/>
<rect x="217" y="61" width="13" height="28" fill="#FF6565"/>
<rect x="217" width="13" height="13" fill="#FF6565"/>
<rect x="166.862" y="11.3489" width="109" height="60" rx="5" transform="rotate(-4.39284 166.862 11.3489)" fill="#FF6565"/>
<rect x="181" y="32.2307" width="30.806" height="10.7692" rx="2" fill="white"/>
<path d="M221.785 36.3842C222.88 37.183 222.88 38.817 221.785 39.6158L209.369 48.6719C208.047 49.6359 206.19 48.6919 206.19 47.0561L206.19 28.9439C206.19 27.3081 208.047 26.3641 209.369 27.3281L221.785 36.3842Z" fill="white"/>
<path d="M247.75 20.0311C247.905 19.9418 248.095 19.9418 248.25 20.0311L261.704 27.799C261.859 27.8884 261.954 28.0534 261.954 28.2321V43.768C261.954 43.9466 261.859 44.1116 261.704 44.201L248.25 51.9689C248.095 52.0582 247.905 52.0582 247.75 51.9689L234.296 44.201C234.141 44.1116 234.046 43.9466 234.046 43.768V28.232C234.046 28.0534 234.141 27.8884 234.296 27.799L247.75 20.0311Z" stroke="white" stroke-width="5"/>
<path d="M248 26L256.66 31V41L248 46L239.34 41V31L248 26Z" fill="#FFAAAA"/>
</svg>
