<svg width="245" height="224" viewBox="0 0 245 224" fill="none" xmlns="http://www.w3.org/2000/svg">
<path d="M123.75 30.6084L191.929 69.9717C192.703 70.4183 193.179 71.2436 193.179 72.1368V150.863C193.179 151.756 192.703 152.582 191.929 153.028L123.75 192.392C122.976 192.838 122.024 192.838 121.25 192.392L53.0709 153.028C52.2973 152.582 51.8209 151.756 51.8209 150.863V72.1367C51.8209 71.2436 52.2973 70.4183 53.0709 69.9717L121.25 30.6084C122.024 30.1619 122.976 30.1619 123.75 30.6084Z" stroke="#FF6565" stroke-width="5"/>
<path d="M124.25 20.6084L201.522 65.2217C202.296 65.6683 202.772 66.4936 202.772 67.3867V156.613C202.772 157.506 202.296 158.332 201.522 158.778L124.25 203.392C123.476 203.838 122.524 203.838 121.75 203.392L44.4776 158.778C43.7041 158.332 43.2276 157.506 43.2276 156.613V67.3867C43.2276 66.4936 43.7041 65.6683 44.4776 65.2217L121.75 20.6084C122.524 20.1619 123.476 20.1619 124.25 20.6084Z" stroke="#FF6565" stroke-width="5"/>
<path d="M121.201 5.33105C121.201 6.30176 120.907 7.20182 120.319 8.03125C119.736 8.85612 118.989 9.42806 118.077 9.74707C117.594 9.91569 117.102 10 116.601 10H113.019V0.668945H116.601C117.476 0.668945 118.287 0.91276 119.034 1.40039C119.768 1.87435 120.331 2.50781 120.723 3.30078C121.042 3.95703 121.201 4.63379 121.201 5.33105ZM118.679 5.33105C118.679 4.68848 118.499 4.12793 118.139 3.64941C117.66 3.01595 116.947 2.69922 115.999 2.69922H115.445V7.96973H115.999C116.951 7.96973 117.665 7.65299 118.139 7.01953C118.499 6.53646 118.679 5.97363 118.679 5.33105ZM125.18 10H122.753V0.668945H125.18V10ZM132.487 2.69922H129.568V4.27832H132.228V6.30859H129.568V10H127.142V0.668945H132.487V2.69922Z" fill="#959595"/>
<path d="M117.735 221H115.145L114.543 219.373H111.193L110.551 221H107.987L111.576 211.669H114.222L117.735 221ZM113.887 217.527L112.882 214.554L111.863 217.527H113.887ZM125.275 217.91C125.275 219.487 124.583 220.515 123.197 220.993C122.714 221.162 122.195 221.246 121.639 221.246C120.472 221.246 119.39 220.893 118.392 220.187L119.431 218.231C120.16 218.888 120.873 219.216 121.57 219.216C121.885 219.216 122.151 219.143 122.37 218.997C122.625 218.833 122.753 218.601 122.753 218.3C122.753 218.026 122.612 217.799 122.329 217.616C122.119 217.479 121.766 217.34 121.27 217.199C120.668 217.021 120.29 216.898 120.135 216.83C119.889 216.725 119.679 216.602 119.506 216.461C119.009 216.051 118.761 215.431 118.761 214.602C118.761 213.736 119.018 213.018 119.533 212.448C120.135 211.778 120.937 211.443 121.939 211.443C122.947 211.443 123.933 211.696 124.899 212.202L123.929 214.089C123.4 213.679 122.867 213.474 122.329 213.474C122.069 213.474 121.837 213.54 121.632 213.672C121.399 213.822 121.283 214.023 121.283 214.273C121.283 214.52 121.436 214.731 121.741 214.909C121.878 214.991 122.288 215.132 122.972 215.333C123.828 215.584 124.439 215.939 124.804 216.399C125.118 216.791 125.275 217.295 125.275 217.91ZM136.124 221H133.697L129.233 215.285V221H126.807V211.669H129.233L133.697 217.377V211.669H136.124V221Z" fill="#959595"/>
<path d="M218.087 63.3477C218.087 64.0449 217.889 64.6123 217.492 65.0498C216.918 65.6833 216.043 66 214.867 66H210.978V56.6689H214.587C216.337 56.6689 217.212 57.4801 217.212 59.1025C217.212 59.5902 217.116 59.998 216.925 60.3262C216.765 60.6042 216.519 60.8411 216.187 61.0371C216.934 61.1921 217.444 61.4906 217.718 61.9326C217.964 62.3382 218.087 62.8099 218.087 63.3477ZM214.97 59.4238C214.97 59 214.778 58.7197 214.396 58.583C214.259 58.5374 214.076 58.5146 213.849 58.5146H213.404V60.3398H213.849C214.268 60.3398 214.569 60.2373 214.751 60.0322C214.897 59.8682 214.97 59.6654 214.97 59.4238ZM215.66 63.1836C215.66 62.6413 215.38 62.3223 214.819 62.2266C214.642 62.1992 214.336 62.1855 213.903 62.1855H213.404V64.1543H213.944C214.564 64.1543 214.997 64.0814 215.243 63.9355C215.521 63.7715 215.66 63.5208 215.66 63.1836ZM224.943 66H219.632V56.6689H224.943V58.6992H222.059V60.2783H224.786V62.3086H222.059V63.9697H224.943V66ZM235.799 66H233.372L228.908 60.2852V66H226.481V56.6689H228.908L233.372 62.377V56.6689H235.799V66Z" fill="#959595"/>
<path d="M18.1152 58.6992H16.1055V66H13.6787V58.6992H11.7031V56.6689H18.1152V58.6992ZM24.5 66H19.1885V56.6689H24.5V58.6992H21.6152V60.2783H24.3428V62.3086H21.6152V63.9697H24.5V66ZM34.9043 66H32.3135L31.7119 64.373H28.3623L27.7197 66H25.1562L28.7451 56.6689H31.3906L34.9043 66ZM31.0557 62.5273L30.0508 59.5537L29.0322 62.5273H31.0557Z" fill="#959595"/>
<path d="M217.444 160.91C217.444 162.487 216.752 163.515 215.366 163.993C214.883 164.162 214.364 164.246 213.808 164.246C212.641 164.246 211.559 163.893 210.561 163.187L211.6 161.231C212.329 161.888 213.042 162.216 213.739 162.216C214.054 162.216 214.32 162.143 214.539 161.997C214.794 161.833 214.922 161.601 214.922 161.3C214.922 161.026 214.781 160.799 214.498 160.616C214.288 160.479 213.935 160.34 213.438 160.199C212.837 160.021 212.459 159.898 212.304 159.83C212.058 159.725 211.848 159.602 211.675 159.461C211.178 159.051 210.93 158.431 210.93 157.602C210.93 156.736 211.187 156.018 211.702 155.448C212.304 154.778 213.106 154.443 214.108 154.443C215.116 154.443 216.102 154.696 217.068 155.202L216.098 157.089C215.569 156.679 215.036 156.474 214.498 156.474C214.238 156.474 214.006 156.54 213.801 156.672C213.568 156.822 213.452 157.023 213.452 157.273C213.452 157.52 213.605 157.731 213.91 157.909C214.047 157.991 214.457 158.132 215.141 158.333C215.997 158.584 216.608 158.939 216.973 159.399C217.287 159.791 217.444 160.295 217.444 160.91ZM227.842 164H225.251L224.649 162.373H221.3L220.657 164H218.094L221.683 154.669H224.328L227.842 164ZM223.993 160.527L222.988 157.554L221.97 160.527H223.993ZM234.445 156.699H232.436V164H230.009V156.699H228.033V154.669H234.445V156.699Z" fill="#959595"/>
<path d="M16.1328 164H13.7061V154.669H16.1328V164ZM27.4121 164H24.9854L20.5215 158.285V164H18.0947V154.669H20.5215L24.9854 160.377V154.669H27.4121V164ZM34.9043 156.699H32.8945V164H30.4678V156.699H28.4922V154.669H34.9043V156.699Z" fill="#959595"/>
<path d="M123 46L180.158 79V145L123 178L65.8423 145V79L123 46Z" fill="#FF6565" fill-opacity="0.6"/>
<path d="M120.918 91.0209L115.444 96.4064C115.123 96.7218 115.241 97.2652 115.663 97.4211L121.816 99.6844C122.239 99.8403 122.679 99.5021 122.64 99.0535L121.96 91.4059C121.914 90.8878 121.287 90.6563 120.918 91.0209Z" fill="white"/>
<path d="M106.87 91.6531L106.904 98.9984C106.828 99.4422 107.24 99.814 107.674 99.6929L113.989 97.9321C114.423 97.811 114.582 97.2796 114.289 96.939L107.94 91.3556C107.601 90.9622 106.958 91.1421 106.87 91.6531Z" fill="white"/>
<path d="M114.732 106.175C119.153 106.175 122.736 103.424 122.736 100.03C122.736 96.6363 119.153 93.8853 114.732 93.8853C110.312 93.8853 106.729 96.6363 106.729 100.03C106.729 103.424 110.312 106.175 114.732 106.175Z" fill="white"/>
<path d="M106.87 91.6531L106.904 98.9984C106.828 99.4422 107.24 99.814 107.674 99.6929L113.989 97.9321C114.423 97.811 114.582 97.2796 114.289 96.939L107.94 91.3556C107.601 90.9622 106.958 91.1421 106.87 91.6531Z" fill="white"/>
<path d="M120.918 91.0209L115.444 96.4064C115.123 96.7218 115.241 97.2652 115.663 97.4211L121.816 99.6844C122.239 99.8403 122.679 99.5021 122.64 99.0535L121.96 91.4059C121.914 90.8878 121.287 90.6563 120.918 91.0209Z" fill="white"/>
<path d="M118.317 128.003H102.155C100.594 128.003 98.665 126.668 98.665 125.022V119.726C98.665 107.908 106.225 103.196 114.731 103.196H119.438C120.311 103.196 121.02 103.942 121.02 104.864V125.156C121.019 126.728 119.809 128.003 118.317 128.003Z" fill="white"/>
<path d="M117.927 128.003H116.668V112.316L120.787 104.048C123.677 108.096 125.37 115.828 125.37 120.16C125.369 124.492 122.037 128.003 117.927 128.003Z" fill="white"/>
<path d="M109.107 107.018C110.815 105.856 111.678 104.147 111.034 103.2C110.39 102.254 108.483 102.429 106.776 103.59C105.068 104.752 104.206 106.461 104.849 107.408C105.493 108.354 107.4 108.18 109.107 107.018Z" fill="white"/>
<path d="M133.86 112.126C134.876 112.126 135.699 111.243 135.699 110.154C135.699 109.065 134.876 108.182 133.86 108.182C132.845 108.182 132.021 109.065 132.021 110.154C132.021 111.243 132.845 112.126 133.86 112.126Z" fill="white"/>
<path d="M131.908 108.732C131.908 109.306 131.474 109.772 130.938 109.772C130.402 109.772 129.968 109.306 129.968 108.732C129.968 108.157 130.548 106.984 131.083 106.984C131.621 106.984 131.908 108.157 131.908 108.732Z" fill="white"/>
<path d="M133.694 106.72C133.694 107.314 133.245 107.795 132.691 107.795C132.137 107.795 131.688 107.314 131.688 106.72C131.688 106.126 132.288 104.914 132.842 104.914C133.396 104.914 133.694 106.126 133.694 106.72Z" fill="white"/>
<path d="M136.027 106.72C136.027 107.314 135.578 107.795 135.024 107.795C134.47 107.795 134.021 107.314 134.021 106.72C134.021 106.126 134.621 104.914 135.175 104.914C135.729 104.914 136.027 106.126 136.027 106.72Z" fill="white"/>
<path d="M137.84 108.739C137.84 109.333 137.392 109.814 136.838 109.814C136.284 109.814 135.835 109.333 135.835 108.739C135.835 108.145 136.435 106.933 136.989 106.933C137.543 106.933 137.84 108.145 137.84 108.739Z" fill="white"/>
<path d="M146.097 101.548C145.892 101.293 145.583 101.144 145.255 101.144H125.729C125.222 101.144 124.783 101.495 124.674 101.991L123.842 105.755C124.412 106.949 124.879 108.188 125.257 109.349L126.595 103.304H143.911L141.442 114.458H126.557C126.695 115.189 126.812 115.914 126.905 116.617H142.308C142.814 116.617 143.253 116.265 143.363 115.77L146.308 102.457C146.38 102.138 146.302 101.804 146.097 101.548Z" fill="white"/>
<path d="M141.902 115.537H126.748C127.019 117.219 127.169 118.821 127.169 120.16C127.169 121.382 126.947 122.55 126.549 123.628H133.459C133.843 123.628 134.193 123.478 134.363 123.241L142.806 116.54C143.138 116.078 142.65 115.537 141.902 115.537Z" fill="white"/>
<path d="M103.794 122.911C103.693 123.633 103.447 124.391 103.253 125.112C103.052 125.83 102.786 126.597 102.839 127.336C103.09 129.551 105.005 130.255 107.023 130.242C108.161 130.247 109.32 130.049 110.427 129.785C111.923 129.41 113.394 128.886 114.806 128.251C117.77 127.06 119.646 131.226 116.775 132.651C116.63 132.716 116.484 132.766 116.334 132.799C114.379 133.258 112.439 133.694 110.426 133.925C107.13 134.306 103.128 134.161 100.812 131.391C99.9798 130.429 99.53 129.218 99.2277 128.031C98.6244 125.886 98.3401 123.659 99.1665 121.566C99.1977 121.473 99.2349 121.411 99.2673 121.324C99.7051 120.075 101.075 119.416 102.325 119.854C103.574 120.292 104.233 121.662 103.794 122.911Z" fill="white"/>
</svg>
