<svg width="15" height="15" viewBox="0 0 15 15" fill="none" xmlns="http://www.w3.org/2000/svg">
<g clip-path="url(#clip0_460_791)">
<path d="M6.80625 10.425L7.1625 8.61875C7.2375 8.25 7.1375 7.86875 6.9 7.58125C6.6625 7.29375 6.3125 7.125 5.9375 7.125L2.5 7.125L2.5 6.45L4.10625 2.75L9.1625 2.75C9.275 2.75 9.375 2.85 9.375 2.9625L9.375 7.8625L6.80625 10.425M6.25 12.75L10.2562 8.74375C10.4937 8.50625 10.625 8.1875 10.625 7.85625L10.625 2.9625C10.625 2.15625 9.96875 1.5 9.1625 1.5L4.1 1.5C3.65625 1.5 3.25 1.73125 3.025 2.10625L1.35625 5.95C1.2875 6.10625 1.25 6.275 1.25 6.45L1.25 7.125C1.25 7.8125 1.8125 8.375 2.5 8.375L5.9375 8.375L5.3625 11.2812C5.33125 11.4187 5.35 11.5687 5.4125 11.6937C5.55625 11.975 5.7375 12.2312 5.9625 12.4562L6.25 12.75ZM12.5 8.375L13.75 8.375L13.75 1.5L12.5 1.5C12.1563 1.5 11.875 1.78125 11.875 2.125L11.875 7.75C11.875 8.09375 12.1563 8.375 12.5 8.375Z" fill="#5D5FEF"/>
</g>
<defs>
<clipPath id="clip0_460_791">
<rect width="15" height="15" fill="white" transform="translate(15 15) rotate(-180)"/>
</clipPath>
</defs>
</svg>
