<svg width="15" height="15" viewBox="0 0 15 15" fill="none" xmlns="http://www.w3.org/2000/svg">
<g clip-path="url(#clip0_460_794)">
<path d="M8.19375 4.575L7.8375 6.38125C7.7625 6.75 7.8625 7.13125 8.1 7.41875C8.3375 7.70625 8.6875 7.875 9.0625 7.875L12.5 7.875V8.55L10.8938 12.25L5.8375 12.25C5.725 12.25 5.625 12.15 5.625 12.0375V7.1375L8.19375 4.575M8.75 2.25L4.74375 6.25625C4.50625 6.49375 4.375 6.8125 4.375 7.14375L4.375 12.0375C4.375 12.8437 5.03125 13.5 5.8375 13.5L10.9 13.5C11.3438 13.5 11.75 13.2688 11.975 12.8938L13.6438 9.05C13.7125 8.89375 13.75 8.725 13.75 8.55V7.875C13.75 7.1875 13.1875 6.625 12.5 6.625L9.0625 6.625L9.6375 3.71875C9.66875 3.58125 9.65 3.43125 9.5875 3.30625C9.44375 3.025 9.2625 2.76875 9.0375 2.54375L8.75 2.25ZM2.5 6.625H1.25L1.25 13.5H2.5C2.84375 13.5 3.125 13.2188 3.125 12.875L3.125 7.25C3.125 6.90625 2.84375 6.625 2.5 6.625Z" fill="#FF6565"/>
</g>
<defs>
<clipPath id="clip0_460_794">
<rect width="15" height="15" fill="white"/>
</clipPath>
</defs>
</svg>
